<svg width="57" height="63" viewBox="0 0 57 63" fill="none" xmlns="http://www.w3.org/2000/svg">
<path fill-rule="evenodd" clip-rule="evenodd" d="M51.7481 63C51.3728 63 51.0339 62.7703 50.898 62.418L47.5128 53.6027C47.1509 52.6626 46.969 51.6765 46.969 50.6694V11.0983C46.969 9.83456 48.001 8.80254 49.2647 8.80254H54.2314C55.4971 8.80254 56.5272 9.83456 56.5272 11.0983V50.6694C56.5272 51.6765 56.3453 52.6626 55.9815 53.6027L52.5982 62.418C52.4642 62.7703 52.1234 63 51.7481 63ZM49.2647 10.6215C49.0043 10.6215 48.788 10.8379 48.788 11.0983V50.6694C48.788 51.4506 48.9316 52.2184 49.213 52.9479L51.7481 59.5497L54.2812 52.9479C54.5646 52.2184 54.7082 51.4506 54.7082 50.6694V11.0983C54.7082 10.8379 54.4918 10.6215 54.2314 10.6215H49.2647Z" fill="black"/>
<path fill-rule="evenodd" clip-rule="evenodd" d="M53.5489 53.8768C53.2809 53.8768 53.011 53.8098 52.7735 53.6739L51.7147 53.0669L50.6616 53.6681C50.1848 53.9419 49.6104 53.9534 49.1279 53.6777L47.5636 52.8161C47.1251 52.571 46.9643 52.0177 47.2075 51.5773C47.4526 51.1331 48.004 50.9875 48.4463 51.2211L49.8842 52.0177L50.9411 51.4145C51.4198 51.135 52.0191 51.1407 52.4997 51.4184L53.5547 52.0234L55.0539 51.2154C55.5 50.9799 56.0515 51.1446 56.2889 51.5868C56.5263 52.0291 56.3597 52.5825 55.9175 52.8199L54.2919 53.693C54.0602 53.8175 53.8036 53.8768 53.5489 53.8768ZM51.8449 52.9941L51.8468 52.9922C51.8468 52.9922 51.8462 52.9929 51.8449 52.9941Z" fill="black"/>
<path d="M55.6177 14.8112H47.8785C47.3768 14.8112 46.969 14.4034 46.969 13.9017C46.969 13.4001 47.3768 12.9922 47.8785 12.9922H55.6177C56.1193 12.9922 56.5272 13.4001 56.5272 13.9017C56.5272 14.4034 56.1193 14.8112 55.6177 14.8112Z" fill="black"/>
<path d="M36.3889 62.9577H7.17246C3.2186 62.9577 0 59.7391 0 55.7852V15.7814C0 11.8275 3.2186 8.60892 7.17246 8.60892H10.2743C10.82 8.60892 11.2604 9.0493 11.2604 9.59499C11.2604 10.1407 10.82 10.583 10.2743 10.583H7.17246C4.30615 10.583 1.97407 12.9151 1.97407 15.7814V55.7852C1.97407 58.6515 4.30615 60.9836 7.17246 60.9836H36.3889C39.2571 60.9836 41.5892 58.6515 41.5892 55.7852V15.7814C41.5892 12.9151 39.2571 10.583 36.3889 10.583H33.289C32.7433 10.583 32.301 10.1407 32.301 9.59499C32.301 9.0493 32.7433 8.60892 33.289 8.60892H36.3889C40.3427 8.60892 43.5633 11.8275 43.5633 15.7814V55.7852C43.5633 59.7391 40.3427 62.9577 36.3889 62.9577Z" fill="black"/>
<path fill-rule="evenodd" clip-rule="evenodd" d="M31.8883 13.9869H11.6767C10.3594 13.9869 9.28909 12.9166 9.28909 11.5992V7.6875C9.28909 6.3721 10.3594 5.30179 11.6767 5.30179H15.5693C16.0442 2.30146 18.6481 0 21.7806 0C24.913 0 27.5189 2.30146 27.9938 5.30179H31.8883C33.2037 5.30179 34.2759 6.3721 34.2759 7.6875V11.5992C34.2759 12.9166 33.2037 13.9869 31.8883 13.9869ZM11.6767 7.27394C11.4489 7.27394 11.2612 7.45965 11.2612 7.6875V11.5992C11.2612 11.8271 11.4489 12.0147 11.6767 12.0147H31.8883C32.1162 12.0147 32.3019 11.8271 32.3019 11.5992V7.6875C32.3019 7.45965 32.1162 7.27394 31.8883 7.27394H27.0862C26.5405 7.27394 26.0983 6.83356 26.0983 6.28787C26.0983 3.9079 24.1625 1.97213 21.7806 1.97213C19.4006 1.97213 17.4649 3.9079 17.4649 6.28787C17.4649 6.83356 17.0245 7.27394 16.4788 7.27394H11.6767Z" fill="black"/>
<path d="M12.5438 27.6758C12.2911 27.6758 12.0384 27.5801 11.845 27.3886L6.93567 22.4793C6.55273 22.0925 6.55273 21.4684 6.93567 21.0816C7.32435 20.6987 7.94472 20.6987 8.33149 21.0816L12.5438 25.2958L19.1323 18.7035C19.521 18.3206 20.1414 18.3206 20.53 18.7035C20.913 19.0903 20.913 19.7145 20.53 20.1013L13.2408 27.3886C13.0474 27.5801 12.7947 27.6758 12.5438 27.6758Z" fill="black"/>
<path d="M12.598 40.5691C12.3376 40.5691 12.0868 40.4638 11.9011 40.28L6.99179 35.3688C6.60502 34.9839 6.60885 34.3578 6.99179 33.973C7.37856 33.59 8.00085 33.59 8.38761 33.973L12.598 38.1891L19.1884 31.5949C19.5771 31.21 20.1975 31.21 20.5842 31.5949C20.9672 31.9798 20.9672 32.6059 20.5842 32.9907L13.2969 40.28C13.1112 40.4638 12.8604 40.5691 12.598 40.5691Z" fill="black"/>
<path d="M12.6617 53.4586C12.3994 53.4586 12.1505 53.3552 11.9628 53.1714L7.05357 48.2583C6.66872 47.8734 6.67063 47.2473 7.05357 46.8625C7.44226 46.4795 8.06263 46.4795 8.45131 46.8625L12.6617 51.0786L19.2521 44.4863C19.6389 44.1034 20.2593 44.1034 20.6479 44.4863C21.0309 44.8712 21.0309 45.4973 20.6479 45.8822L13.3606 53.1714C13.1729 53.3552 12.9241 53.4586 12.6617 53.4586Z" fill="black"/>
<path d="M36.0301 24.0313H25.2752C24.7295 24.0313 24.2891 23.5909 24.2891 23.0452C24.2891 22.4995 24.7295 22.0592 25.2752 22.0592H36.0301C36.5758 22.0592 37.0162 22.4995 37.0162 23.0452C37.0162 23.5909 36.5758 24.0313 36.0301 24.0313Z" fill="black"/>
<path d="M36.0301 36.9234H25.2752C24.7295 36.9234 24.2891 36.4811 24.2891 35.9354C24.2891 35.3897 24.7295 34.9493 25.2752 34.9493H36.0301C36.5758 34.9493 37.0162 35.3897 37.0162 35.9354C37.0162 36.4811 36.5758 36.9234 36.0301 36.9234Z" fill="black"/>
<path d="M36.0301 49.8121H25.2752C24.7295 49.8121 24.2891 49.3698 24.2891 48.826C24.2891 48.2803 24.7295 47.8381 25.2752 47.8381H36.0301C36.5758 47.8381 37.0162 48.2803 37.0162 48.826C37.0162 49.3698 36.5758 49.8121 36.0301 49.8121Z" fill="black"/>
</svg>
