<svg width="70" height="90" viewBox="0 0 70 90" fill="none" xmlns="http://www.w3.org/2000/svg">
<rect width="70" height="90" rx="4" fill="url(#paint0_linear_515_92)"/>
<path d="M48.9846 34.8903C48.9805 34.6094 48.9648 34.0522 48.9608 33.7713C39.7331 33.637 30.5011 33.7359 21.2734 33.7199C21.2813 34.0085 21.2973 34.5897 21.3051 34.8821C30.529 34.9417 39.7566 34.8984 48.9846 34.8903Z" fill="white"/>
<path d="M34.7671 38.2676C32.4621 40.8057 30.1652 43.3439 27.9232 45.9417C27.1997 46.8984 25.9345 47.5627 25.8633 48.8872C31.4301 48.911 37.0084 48.9938 42.5714 48.8238C42.7494 48.5985 43.1052 48.1397 43.279 47.9104C42.3854 46.7481 41.3615 45.6922 40.4679 44.5341C38.6853 42.3517 37.0841 39.924 34.7671 38.2676ZM28.6666 47.5071C30.6434 45.048 32.7112 42.6599 34.8499 40.3392C37.1669 42.5058 39.0408 45.0835 40.9938 47.5664C36.8864 47.5429 32.7746 47.5862 28.6666 47.5071Z" fill="white"/>
<path d="M57.2692 56.2206C56.779 55.679 56.2688 55.1609 55.7272 54.6746C55.6918 47.2932 55.7075 39.9115 55.7034 32.5343C55.6796 31.3403 55.7705 30.1225 55.4979 28.9521C55.1223 27.6713 53.7937 26.8843 52.489 27.0268C41.1462 27.0309 29.8031 27.0387 18.464 27.0268C17.4439 27.0704 16.2895 26.7855 15.3999 27.4221C14.6092 27.8966 14.0993 28.7783 14.1665 29.7074C14.1229 38.0417 14.2101 46.376 14.1228 54.7103C12.312 55.9994 11.5373 58.5099 12.2803 60.5893L12.553 60.6882L12.4027 60.8858C12.5489 61.7635 13.3199 62.4949 14.1147 62.8667C15.2732 63.1871 16.4947 63.0883 17.6886 63.1196C29.8065 63.1237 41.9244 63.1196 54.0463 63.1237C55.0426 63.0801 56.288 63.2226 56.9206 62.2618C58.4116 60.5972 58.1901 58.1064 57.2692 56.2206ZM15.3447 29.6996C15.3526 28.5056 16.6494 27.9757 17.6852 28.1379C29.2932 28.221 40.9008 28.1379 52.5129 28.1498C53.6356 28.0353 54.6162 29.0155 54.4699 30.1505C54.5609 38.3621 54.5252 46.5819 54.4542 54.7976C41.4151 54.754 28.3801 54.833 15.3409 54.77C15.3447 46.4115 15.3249 38.0574 15.3447 29.6996ZM55.9328 61.301C55.4859 61.8664 54.6993 61.7437 54.0705 61.7873C41.2686 61.7597 28.4667 61.7833 15.6688 61.7676C14.6961 61.9059 14.0479 61.1193 13.51 60.4472C12.9685 58.8303 13.4664 55.9993 15.6845 56.2366C28.2056 56.1496 40.727 56.2089 53.2481 56.1929C54.1969 56.2127 55.2208 56.1377 56.0432 56.711C56.7552 58.1221 57.0752 60.0198 55.9328 61.301Z" fill="white"/>
<path d="M30.2516 58.6483C29.5795 58.5099 29.6586 59.3678 29.4688 59.7512C33.0229 59.8896 36.5812 59.8146 40.1398 59.775C40.1279 59.5024 40.1122 58.9605 40.1043 58.6878C36.8187 58.6206 33.5331 58.6523 30.2516 58.6483Z" fill="white"/>
<defs>
<linearGradient id="paint0_linear_515_92" x1="82" y1="1.7881" x2="10.2342" y2="63.8639" gradientUnits="userSpaceOnUse">
<stop stop-color="#6F2FEF"/>
<stop offset="0.485577" stop-color="#413ECF"/>
<stop offset="1" stop-color="#1F78FF"/>
</linearGradient>
</defs>
</svg>
