<svg width="36" height="38" viewBox="0 0 36 38" fill="none" xmlns="http://www.w3.org/2000/svg">
<path d="M34.4162 2.34955C34.4162 2.34955 33.7996 1.73291 32.5662 1.73291C31.2046 1.73291 30.0996 2.83799 30.0996 4.19954C30.0996 6.66617 35.0329 5.4329 35.0329 7.89953C35.0329 9.26115 33.9279 10.3662 32.5663 10.3662C31.333 10.3662 30.7163 9.74952 30.7163 9.74952" stroke="black" stroke-miterlimit="10" stroke-linecap="round" stroke-linejoin="round"/>
<path d="M32.5664 1.73335V0.5" stroke="black" stroke-miterlimit="10" stroke-linecap="round" stroke-linejoin="round"/>
<path d="M32.5664 11.6001V10.3667" stroke="black" stroke-miterlimit="10" stroke-linecap="round" stroke-linejoin="round"/>
<path d="M35.0329 32.5664H30.0996V37.4997H35.0329V32.5664Z" stroke="black" stroke-miterlimit="10" stroke-linecap="round" stroke-linejoin="round"/>
<path d="M25.1662 27.6333H20.2329V37.4999H25.1662V27.6333Z" stroke="black" stroke-miterlimit="10" stroke-linecap="round" stroke-linejoin="round"/>
<path d="M15.2996 19H10.3662V37.4999H15.2996V19Z" stroke="black" stroke-miterlimit="10" stroke-linecap="round" stroke-linejoin="round"/>
<path d="M5.43334 0.5H0.5V37.4999H5.43334V0.5Z" stroke="black" stroke-miterlimit="10" stroke-linecap="round" stroke-linejoin="round"/>
<path d="M32.5663 20.2333C21.6754 20.2333 12.833 11.3909 12.833 0.5" stroke="black" stroke-miterlimit="10" stroke-linecap="round" stroke-linejoin="round"/>
<path d="M31.333 17.7666L35.033 20.2333L31.333 22.6999" stroke="black" stroke-miterlimit="10" stroke-linecap="round" stroke-linejoin="round"/>
</svg>
